<svg id="visual" viewBox="0 0 900 600" width="900" height="600" xmlns="http://www.w3.org/2000/svg" xmlns:xlink="http://www.w3.org/1999/xlink" version="1.1"><rect x="0" y="0" width="900" height="600" fill="#00203f"></rect><defs><linearGradient id="grad1_0" x1="33.3%" y1="0%" x2="100%" y2="100%"><stop offset="20%" stop-color="#00203f" stop-opacity="1"></stop><stop offset="80%" stop-color="#00203f" stop-opacity="1"></stop></linearGradient></defs><defs><linearGradient id="grad2_0" x1="0%" y1="0%" x2="66.7%" y2="100%"><stop offset="20%" stop-color="#00203f" stop-opacity="1"></stop><stop offset="80%" stop-color="#00203f" stop-opacity="1"></stop></linearGradient></defs><g transform="translate(900, 0)"><path d="M0 378.6C-40.7 376.6 -81.3 374.5 -117 360.1C-152.7 345.6 -183.4 318.7 -211.6 291.2C-239.8 263.8 -265.5 236 -281.5 204.5C-297.6 173.1 -304 138.2 -318.6 103.5C-333.2 68.8 -355.9 34.4 -378.6 0L0 0Z" fill="#adefd1"></path></g><g transform="translate(0, 600)"><path d="M0 -378.6C40 -373.1 79.9 -367.7 114 -350.9C148.1 -334.2 176.4 -306.1 204.5 -281.5C232.7 -257 260.7 -235.9 288.8 -209.8C316.9 -183.8 345.1 -152.8 360.1 -117C375 -81.2 376.8 -40.6 378.6 0L0 0Z" fill="#adefd1"></path></g></svg>